# xmcd
#
# Track frame offsets:
# 150
# 12245
# 30619
# 45951
# 61845
# 73988
# 93591
# 111152
# 128486
# 142858
# 158537
# 176699
#
# Disc length: 2529 seconds
#
#
# Revision: 0
# Processed by: cddbd v1.5.1PL2 Copyright (c) Steve Scherf et al.
# Submitted via: FreeRIP 2.945 
#
DISCID=9309df0c
DTITLE=Stan Swiniarski - Ain't That Love
DYEAR=2005
DGENRE=Country
TTITLE0=Drinkin' Cap
TTITLE1=Ain't That Love
TTITLE2=Holdin' on for Dear Love
TTITLE3=Just Enough Room
TTITLE4=Just Add baby
TTITLE5=What Do We Do for Now
TTITLE6=All This Family's Love
TTITLE7=Little Eyes Watching
TTITLE8=One Sunset at a Time
TTITLE9=Both Sides of the Coin
TTITLE10=Corner of Fifth and Hope
TTITLE11=Makin' Our Days Count
EXTD=
EXTT0=
EXTT1=
EXTT2=
EXTT3=
EXTT4=
EXTT5=
EXTT6=
EXTT7=
EXTT8=
EXTT9=
EXTT10=
EXTT11=
PLAYORDER=
